<svg width="101" height="41" viewBox="0 0 101 41" fill="none" xmlns="http://www.w3.org/2000/svg">
<g clip-path="url(#clip0_2134_2344)">
<path d="M97.3175 18.2534C97.3175 17.993 97.3827 17.7489 97.5129 17.521C97.6431 17.2931 97.8221 17.1135 98.0499 16.9819C98.2778 16.8504 98.5232 16.7847 98.7862 16.7847C99.0453 16.7847 99.2881 16.8491 99.516 16.978C99.7425 17.1069 99.9222 17.2863 100.055 17.5161C100.187 17.7459 100.253 17.9917 100.253 18.2534C100.253 18.5125 100.188 18.7553 100.06 18.9819C99.9321 19.2085 99.7549 19.3882 99.5284 19.521C99.3019 19.6538 99.0545 19.7202 98.7863 19.7202C98.5167 19.7202 98.2681 19.6528 98.0402 19.5181C97.8123 19.3833 97.6346 19.2033 97.5083 18.978C97.3807 18.7527 97.3175 18.5112 97.3175 18.2534ZM97.5578 18.2534C97.5578 18.4721 97.6119 18.6756 97.7199 18.8637C97.8279 19.0519 97.977 19.2019 98.1671 19.3139C98.3573 19.4259 98.5636 19.4819 98.7863 19.4819C99.0115 19.4819 99.2192 19.4253 99.4106 19.312C99.6007 19.1987 99.7491 19.048 99.8546 18.8599C99.9601 18.6717 100.013 18.4696 100.013 18.2534C100.013 18.0385 99.9594 17.8364 99.8527 17.6469C99.7459 17.4575 99.5981 17.3065 99.408 17.1938C99.2192 17.0812 99.0115 17.0249 98.7863 17.0249C98.5675 17.0249 98.3625 17.0799 98.1723 17.1899C97.9809 17.2999 97.8312 17.4503 97.7218 17.6411C97.6124 17.8319 97.5578 18.0359 97.5578 18.2534ZM99.4327 17.9097C99.4327 18.0177 99.4027 18.1121 99.3441 18.1929C99.2843 18.2736 99.1996 18.3374 99.0889 18.3843L99.501 19.1128H99.1104L98.7745 18.4781H98.5967V19.1128H98.2491V17.3979H98.7745C99.2133 17.3979 99.4327 17.5685 99.4327 17.9097ZM98.5968 18.1967H98.7374C98.8467 18.1967 98.9307 18.1733 98.9893 18.1264C99.0479 18.0795 99.0772 18.0151 99.0772 17.9331C99.0772 17.838 99.0473 17.7723 98.9887 17.7358C98.9288 17.6993 98.8455 17.6811 98.7374 17.6811H98.5968V18.1967Z" fill="#A7A7A7"/>
<path d="M13.4523 23.7058L14.0522 20.9058H7.98586L8.5192 18.5058H15.4521L16.0521 15.6392H3.4528L0.25293 29.7725H13.2523L13.8522 26.7725H6.71926L7.38586 23.7058H13.4523Z" fill="#A7A7A7"/>
<path d="M30.3181 23.7058C30.5848 22.3725 30.7848 21.1058 30.7848 21.1058C31.5847 16.7058 27.185 16.7058 24.3851 16.6392C20.3186 16.5058 16.8522 16.5058 15.5856 21.5058C15.5856 21.5058 14.919 24.1058 14.7857 26.1058C14.5857 30.1725 18.9188 30.0392 21.252 30.1725C23.5852 30.2392 25.0518 29.7725 25.0518 29.7725L28.9183 34.3058H34.7846L25.9183 23.7058H30.3181ZM25.785 21.3058C25.785 21.3058 25.4516 23.7058 24.585 26.1058C24.185 27.2392 22.8518 27.8392 21.8518 27.8392C20.7186 27.8392 19.452 27.2392 19.7853 25.5725C19.7853 25.5725 20.1187 23.3058 20.9853 20.7725C20.9853 20.7725 21.7185 18.9058 23.7184 19.0392C23.7184 19.0392 26.2516 18.6392 25.785 21.3058Z" fill="#A7A7A7"/>
<path d="M42.4507 17.2391L40.3842 26.3725C39.9842 28.0391 37.9176 27.7725 37.9176 27.7725C36.3177 27.7725 36.3177 26.3058 36.3177 26.3058C36.651 24.5058 38.3175 17.3058 38.3175 17.3058H33.1845C32.7845 18.7725 31.5179 24.5725 31.5179 24.5725L36.2509 30.1058C37.5843 30.3058 38.7842 30.3058 39.4508 30.3058C43.3839 30.1058 45.1172 28.5725 45.4505 27.4391C45.7838 26.3058 47.7837 17.3058 47.7837 17.3058H42.4506L42.4507 17.2391Z" fill="#A7A7A7"/>
<path d="M49.5838 17.2391L46.8506 29.7725H51.9837L54.8501 17.2391H49.5838Z" fill="#A7A7A7"/>
<path d="M66.1162 21.9725H60.9831L61.583 19.6391H67.5161L68.116 17.2391H56.7833L54.0501 29.7725H59.2498L60.5164 24.3725H65.5828L66.1162 21.9725Z" fill="#A7A7A7"/>
<path d="M91.1148 17.2391L87.8484 20.4391L85.8485 17.2391H79.1822L83.3153 23.5058L79.1155 27.3725L77.8489 17.2391H71.5826L62.7163 29.7725H66.3828L68.2494 26.9725H73.7158L73.9824 29.7058H81.782L85.3818 25.9725L87.5817 29.7058H93.9814L89.5816 23.0391L96.1812 17.2391H91.1148ZM69.9826 24.3058L72.8492 20.1725L73.2492 24.3058H69.9826Z" fill="#A7A7A7"/>
</g>
<defs>
<clipPath id="clip0_2134_2344">
<rect width="100" height="40" fill="white" transform="translate(0.25 0.63916)"/>
</clipPath>
</defs>
</svg>
