<svg width="92" height="106" viewBox="0 0 92 106" fill="none" xmlns="http://www.w3.org/2000/svg">
<g clip-path="url(#clip0_5702_163)">
<path d="M0 83.334L46 106L92 83.334V0H0V83.334Z" fill="white"/>
<path d="M0 83.334L46 106L92 83.334V0H0V83.334Z" fill="white"/>
<path d="M12.8299 13.33C12.5833 13.33 12.3533 13.3 12.1399 13.24C11.9266 13.18 11.7366 13.0967 11.5699 12.99C11.3966 12.8767 11.2566 12.7533 11.1499 12.62C11.0433 12.4867 10.9733 12.3433 10.9399 12.19L11.8699 11.91C11.9299 12.07 12.0399 12.2067 12.1999 12.32C12.3533 12.4333 12.5466 12.4933 12.7799 12.5C13.0266 12.5067 13.2266 12.4533 13.3799 12.34C13.5399 12.2267 13.6199 12.0833 13.6199 11.91C13.6199 11.7567 13.5566 11.6267 13.4299 11.52C13.3099 11.4133 13.1399 11.3333 12.9199 11.28L12.2899 11.11C12.0499 11.05 11.8399 10.9567 11.6599 10.83C11.4733 10.71 11.3299 10.5567 11.2299 10.37C11.1299 10.19 11.0799 9.98001 11.0799 9.74001C11.0799 9.27334 11.2299 8.91001 11.5299 8.65001C11.8366 8.39668 12.2699 8.27001 12.8299 8.27001C13.1433 8.27001 13.4199 8.31334 13.6599 8.40001C13.8933 8.49334 14.0899 8.62334 14.2499 8.79001C14.4099 8.95668 14.5299 9.15668 14.6099 9.39001L13.6799 9.67001C13.6266 9.51001 13.5233 9.37668 13.3699 9.27001C13.2233 9.15668 13.0333 9.10001 12.7999 9.10001C12.5666 9.10001 12.3866 9.15334 12.2599 9.26001C12.1266 9.36668 12.0599 9.52001 12.0599 9.72001C12.0599 9.87334 12.1099 9.99334 12.2099 10.08C12.3166 10.1667 12.4599 10.2333 12.6399 10.28L13.2899 10.44C13.7099 10.5467 14.0366 10.7333 14.2699 11C14.5033 11.2667 14.6199 11.5633 14.6199 11.89C14.6199 12.1767 14.5499 12.4267 14.4099 12.64C14.2699 12.86 14.0666 13.03 13.7999 13.15C13.5333 13.27 13.2099 13.33 12.8299 13.33ZM16.1399 13.25V8.35001H17.9599C18.2999 8.35001 18.6033 8.42001 18.8699 8.56001C19.1366 8.69334 19.3466 8.88334 19.4999 9.13001C19.6466 9.37668 19.7199 9.66001 19.7199 9.98001C19.7199 10.3 19.6466 10.5833 19.4999 10.83C19.3599 11.0767 19.1633 11.27 18.9099 11.41C18.6566 11.5567 18.3633 11.63 18.0299 11.63H17.0999V13.25H16.1399ZM17.0999 10.74H18.0099C18.2233 10.74 18.3999 10.67 18.5399 10.53C18.6799 10.39 18.7499 10.2067 18.7499 9.98001C18.7499 9.76001 18.6733 9.57668 18.5199 9.43001C18.3666 9.29668 18.1733 9.23001 17.9399 9.23001H17.0999V10.74ZM21.0599 13.25V8.35001H22.8799C23.2266 8.35001 23.5299 8.41668 23.7899 8.55001C24.0566 8.69001 24.2666 8.87668 24.4199 9.11001C24.5666 9.34334 24.6399 9.61668 24.6399 9.93001C24.6399 10.2367 24.5633 10.51 24.4099 10.75C24.2499 10.99 24.0366 11.1767 23.7699 11.31C23.4966 11.4433 23.1866 11.51 22.8399 11.51H22.0199V13.25H21.0599ZM23.7499 13.25L22.6199 11.28L23.3499 10.76L24.8399 13.25H23.7499ZM22.0199 10.64H22.8799C23.0266 10.64 23.1566 10.61 23.2699 10.55C23.3833 10.49 23.4766 10.4067 23.5499 10.3C23.6166 10.1933 23.6499 10.07 23.6499 9.93001C23.6499 9.72334 23.5733 9.55334 23.4199 9.42001C23.2666 9.29334 23.0733 9.23001 22.8399 9.23001H22.0199V10.64ZM26.2699 13.25V8.35001H27.2299V13.25H26.2699ZM28.9999 13.25V8.35001H29.9999L32.3899 11.64V8.35001H33.3399V13.25H32.3899L29.9499 9.90001V13.25H28.9999ZM37.3799 13.33C36.8799 13.33 36.4399 13.2233 36.0599 13.01C35.6733 12.79 35.3699 12.49 35.1499 12.11C34.9299 11.73 34.8199 11.2933 34.8199 10.8C34.8199 10.3067 34.9299 9.87001 35.1499 9.49001C35.3699 9.11001 35.6733 8.81001 36.0599 8.59001C36.4399 8.37668 36.8799 8.27001 37.3799 8.27001C37.6799 8.27001 37.9566 8.31334 38.2099 8.40001C38.4633 8.48668 38.6866 8.61001 38.8799 8.77001C39.0733 8.92334 39.2333 9.10001 39.3599 9.30001L38.5799 9.79001C38.4999 9.66334 38.3966 9.55334 38.2699 9.46001C38.1366 9.36001 37.9933 9.28334 37.8399 9.23001C37.6866 9.17001 37.5333 9.14001 37.3799 9.14001C37.0733 9.14001 36.7999 9.21001 36.5599 9.35001C36.3266 9.49668 36.1399 9.69334 35.9999 9.94001C35.8666 10.1867 35.7999 10.4733 35.7999 10.8C35.7999 11.12 35.8666 11.4067 35.9999 11.66C36.1333 11.9133 36.3199 12.11 36.5599 12.25C36.8066 12.3967 37.0866 12.47 37.3999 12.47C37.6466 12.47 37.8666 12.42 38.0599 12.32C38.2533 12.22 38.4066 12.0833 38.5199 11.91C38.6333 11.73 38.6899 11.5233 38.6899 11.29L39.5999 11.15C39.5999 11.61 39.5066 12.0033 39.3199 12.33C39.1266 12.6567 38.8633 12.9067 38.5299 13.08C38.1966 13.2467 37.8133 13.33 37.3799 13.33ZM37.5399 11.37V10.63H39.5999V11.22L39.0799 11.37H37.5399ZM43.1999 13.25V12.54C43.1999 12.4067 43.2399 12.26 43.3199 12.1C43.4066 11.9333 43.5233 11.77 43.6699 11.61C43.8233 11.4433 43.9999 11.29 44.1999 11.15L44.9399 10.62C45.0466 10.5467 45.1433 10.4667 45.2299 10.38C45.3233 10.2933 45.3999 10.1967 45.4599 10.09C45.5133 9.98334 45.5399 9.88334 45.5399 9.79001C45.5399 9.66334 45.5133 9.55334 45.4599 9.46001C45.3999 9.36001 45.3133 9.28334 45.1999 9.23001C45.0866 9.17001 44.9499 9.14001 44.7899 9.14001C44.6499 9.14001 44.5233 9.17001 44.4099 9.23001C44.3033 9.28334 44.2133 9.35668 44.1399 9.45001C44.0733 9.54334 44.0266 9.64334 43.9999 9.75001L43.0099 9.58001C43.0566 9.34668 43.1566 9.13001 43.3099 8.93001C43.4633 8.73001 43.6666 8.56668 43.9199 8.44001C44.1666 8.32001 44.4499 8.26001 44.7699 8.26001C45.1299 8.26001 45.4399 8.32668 45.6999 8.46001C45.9666 8.58668 46.1699 8.76334 46.3099 8.99001C46.4499 9.21668 46.5199 9.48001 46.5199 9.78001C46.5199 10.08 46.4399 10.35 46.2799 10.59C46.1133 10.8233 45.8833 11.0433 45.5899 11.25L44.9299 11.73C44.7899 11.8233 44.6733 11.9267 44.5799 12.04C44.4799 12.1533 44.4033 12.2767 44.3499 12.41H46.5899V13.25H43.1999ZM49.8599 13.33C49.4666 13.33 49.1166 13.2233 48.8099 13.01C48.5099 12.79 48.2733 12.49 48.0999 12.11C47.9266 11.73 47.8399 11.2933 47.8399 10.8C47.8399 10.3067 47.9266 9.87001 48.0999 9.49001C48.2733 9.11001 48.5099 8.81001 48.8099 8.59001C49.1099 8.37668 49.4599 8.27001 49.8599 8.27001C50.2533 8.27001 50.6033 8.37668 50.9099 8.59001C51.2166 8.81001 51.4566 9.11001 51.6299 9.49001C51.8033 9.87001 51.8899 10.3067 51.8899 10.8C51.8899 11.2933 51.8033 11.73 51.6299 12.11C51.4566 12.49 51.2166 12.79 50.9099 13.01C50.6099 13.2233 50.2599 13.33 49.8599 13.33ZM49.8599 12.47C50.0733 12.47 50.2633 12.3967 50.4299 12.25C50.5899 12.11 50.7166 11.9133 50.8099 11.66C50.9033 11.4133 50.9499 11.1267 50.9499 10.8C50.9499 10.4733 50.9033 10.1833 50.8099 9.93001C50.7166 9.67668 50.5899 9.48001 50.4299 9.34001C50.2633 9.20001 50.0733 9.13001 49.8599 9.13001C49.6466 9.13001 49.4599 9.20001 49.2999 9.34001C49.1333 9.48001 49.0033 9.67668 48.9099 9.93001C48.8233 10.1833 48.7799 10.4733 48.7799 10.8C48.7799 11.1267 48.8233 11.4133 48.9099 11.66C49.0033 11.9133 49.1333 12.11 49.2999 12.25C49.4666 12.3967 49.6533 12.47 49.8599 12.47ZM53.1899 13.25V12.54C53.1899 12.4067 53.2299 12.26 53.3099 12.1C53.3966 11.9333 53.5133 11.77 53.6599 11.61C53.8133 11.4433 53.9899 11.29 54.1899 11.15L54.9299 10.62C55.0299 10.5467 55.1266 10.4667 55.2199 10.38C55.3133 10.2933 55.3899 10.1967 55.4499 10.09C55.5033 9.98334 55.5299 9.88334 55.5299 9.79001C55.5299 9.66334 55.5033 9.55334 55.4499 9.46001C55.3899 9.36001 55.3033 9.28334 55.1899 9.23001C55.0766 9.17001 54.9399 9.14001 54.7799 9.14001C54.6399 9.14001 54.5133 9.17001 54.3999 9.23001C54.2933 9.28334 54.2033 9.35668 54.1299 9.45001C54.0633 9.54334 54.0166 9.64334 53.9899 9.75001L52.9999 9.58001C53.0466 9.34668 53.1466 9.13001 53.2999 8.93001C53.4533 8.73001 53.6566 8.56668 53.9099 8.44001C54.1566 8.32001 54.4399 8.26001 54.7599 8.26001C55.1199 8.26001 55.4299 8.32668 55.6899 8.46001C55.9566 8.58668 56.1599 8.76334 56.2999 8.99001C56.4399 9.21668 56.5099 9.48001 56.5099 9.78001C56.5099 10.08 56.4266 10.35 56.2599 10.59C56.0999 10.8233 55.8733 11.0433 55.5799 11.25L54.9199 11.73C54.7799 11.8233 54.6633 11.9267 54.5699 12.04C54.4699 12.1533 54.3933 12.2767 54.3399 12.41H56.5799V13.25H53.1899ZM59.6799 13.33C59.3466 13.33 59.0633 13.2733 58.8299 13.16C58.6033 13.04 58.4166 12.8733 58.2699 12.66C58.1233 12.4533 58.0133 12.21 57.9399 11.93C57.8733 11.65 57.8399 11.35 57.8399 11.03C57.8399 10.6567 57.8799 10.3033 57.9599 9.97001C58.0399 9.63668 58.1599 9.34334 58.3199 9.09001C58.4799 8.83001 58.6866 8.62668 58.9399 8.48001C59.1933 8.34001 59.4966 8.27001 59.8499 8.27001C60.1099 8.27001 60.3599 8.30668 60.5999 8.38001C60.8466 8.45334 61.0699 8.56001 61.2699 8.70001L60.7899 9.40001C60.6433 9.30001 60.4866 9.22668 60.3199 9.18001C60.1599 9.13334 60.0099 9.11001 59.8699 9.11001C59.5099 9.11001 59.2266 9.26668 59.0199 9.58001C58.8133 9.90001 58.7133 10.4033 58.7199 11.09L58.5399 10.95C58.6466 10.6967 58.8099 10.4933 59.0299 10.34C59.2566 10.1867 59.5233 10.11 59.8299 10.11C60.1433 10.11 60.4199 10.18 60.6599 10.32C60.8999 10.4667 61.0899 10.6667 61.2299 10.92C61.3633 11.1667 61.4299 11.4433 61.4299 11.75C61.4299 12.0567 61.3599 12.33 61.2199 12.57C61.0733 12.81 60.8666 12.9967 60.5999 13.13C60.3399 13.2633 60.0333 13.33 59.6799 13.33ZM59.6799 12.52C59.8333 12.52 59.9699 12.4867 60.0899 12.42C60.2099 12.3467 60.3066 12.25 60.3799 12.13C60.4466 12.01 60.4799 11.87 60.4799 11.71C60.4799 11.55 60.4466 11.41 60.3799 11.29C60.3066 11.1633 60.2099 11.0633 60.0899 10.99C59.9699 10.9167 59.8333 10.88 59.6799 10.88C59.5266 10.88 59.3866 10.9167 59.2599 10.99C59.1399 11.0633 59.0433 11.1633 58.9699 11.29C58.8966 11.41 58.8599 11.55 58.8599 11.71C58.8599 11.87 58.8966 12.01 58.9699 12.13C59.0433 12.25 59.1399 12.3467 59.2599 12.42C59.3866 12.4867 59.5266 12.52 59.6799 12.52ZM23.4999 53.75V43.25H25.9099V51.53H30.3799V53.75H23.4999ZM35.0199 53.93C34.2399 53.93 33.5499 53.7633 32.9499 53.43C32.3499 53.0967 31.8799 52.6333 31.5399 52.04C31.1999 51.4533 31.0299 50.7733 31.0299 50C31.0299 49.22 31.1999 48.5367 31.5399 47.95C31.8866 47.3567 32.3599 46.8967 32.9599 46.57C33.5599 46.2367 34.2566 46.07 35.0499 46.07C35.7566 46.07 36.3966 46.24 36.9699 46.58C37.5366 46.92 37.9866 47.4267 38.3199 48.1C38.6599 48.7667 38.8299 49.6 38.8299 50.6H33.1899L33.4399 50.32C33.4399 50.66 33.5099 50.96 33.6499 51.22C33.7899 51.48 33.9866 51.6767 34.2399 51.81C34.4866 51.9433 34.7666 52.01 35.0799 52.01C35.4466 52.01 35.7566 51.9267 36.0099 51.76C36.2699 51.6 36.4499 51.3933 36.5499 51.14L38.6199 51.85C38.4199 52.3167 38.1366 52.7067 37.7699 53.02C37.4033 53.3267 36.9866 53.5567 36.5199 53.71C36.0466 53.8567 35.5466 53.93 35.0199 53.93ZM33.4999 49.34L33.2599 49.04H36.6199L36.4099 49.34C36.4099 48.9733 36.3366 48.68 36.1899 48.46C36.0366 48.24 35.8499 48.08 35.6299 47.98C35.4099 47.8867 35.1899 47.84 34.9699 47.84C34.7499 47.84 34.5266 47.8867 34.2999 47.98C34.0799 48.08 33.8933 48.24 33.7399 48.46C33.5799 48.68 33.4999 48.9733 33.4999 49.34ZM44.2699 53.75L44.2099 52.13V50.02C44.2099 49.62 44.1766 49.27 44.1099 48.97C44.0366 48.67 43.9099 48.4333 43.7299 48.26C43.5499 48.0933 43.2799 48.01 42.9199 48.01C42.6399 48.01 42.3966 48.0733 42.1899 48.2C41.9766 48.3333 41.7966 48.5133 41.6499 48.74L39.6099 48.07C39.7766 47.6967 40.0066 47.36 40.2999 47.06C40.5999 46.76 40.9633 46.52 41.3899 46.34C41.8233 46.16 42.3233 46.07 42.8899 46.07C43.6699 46.07 44.3299 46.2167 44.8699 46.51C45.4099 46.7967 45.8166 47.2 46.0899 47.72C46.3566 48.24 46.4899 48.8567 46.4899 49.57L46.4599 53.75H44.2699ZM42.2299 53.93C41.3433 53.93 40.6533 53.73 40.1599 53.33C39.6733 52.93 39.4299 52.3667 39.4299 51.64C39.4299 50.8467 39.6833 50.2567 40.1899 49.87C40.7033 49.4767 41.4199 49.28 42.3399 49.28H44.3899V50.78H43.2199C42.7199 50.78 42.3599 50.85 42.1399 50.99C41.9199 51.13 41.8099 51.3267 41.8099 51.58C41.8099 51.76 41.8933 51.9 42.0599 52C42.2266 52.1067 42.4533 52.16 42.7399 52.16C43.0333 52.16 43.2899 52.0967 43.5099 51.97C43.7299 51.85 43.8999 51.6833 44.0199 51.47C44.1466 51.2633 44.2099 51.0333 44.2099 50.78H44.7999C44.7999 51.78 44.5899 52.5567 44.1699 53.11C43.7499 53.6567 43.1033 53.93 42.2299 53.93ZM53.1499 53.75L53.0499 52.36V43.25H55.3899V53.75H53.1499ZM50.9199 53.93C50.2199 53.93 49.6166 53.7733 49.1099 53.46C48.6033 53.1467 48.2133 52.6933 47.9399 52.1C47.6666 51.5133 47.5299 50.8133 47.5299 50C47.5299 49.18 47.6666 48.4767 47.9399 47.89C48.2133 47.31 48.6033 46.86 49.1099 46.54C49.6166 46.2267 50.2199 46.07 50.9199 46.07C51.5399 46.07 52.0599 46.2267 52.4799 46.54C52.9066 46.86 53.2266 47.31 53.4399 47.89C53.6466 48.4767 53.7499 49.18 53.7499 50C53.7499 50.8133 53.6466 51.5133 53.4399 52.1C53.2266 52.6933 52.9099 53.1467 52.4899 53.46C52.0633 53.7733 51.5399 53.93 50.9199 53.93ZM51.5299 51.77C51.8233 51.77 52.0833 51.6967 52.3099 51.55C52.5433 51.3967 52.7233 51.1867 52.8499 50.92C52.9833 50.66 53.0499 50.3533 53.0499 50C53.0499 49.6533 52.9833 49.3467 52.8499 49.08C52.7233 48.8133 52.5433 48.6067 52.3099 48.46C52.0833 48.3067 51.8199 48.23 51.5199 48.23C51.2199 48.23 50.9533 48.3067 50.7199 48.46C50.4933 48.6067 50.3133 48.8133 50.1799 49.08C50.0399 49.3467 49.9666 49.6533 49.9599 50C49.9666 50.3533 50.0399 50.66 50.1799 50.92C50.3133 51.1867 50.4966 51.3967 50.7299 51.55C50.9633 51.6967 51.2299 51.77 51.5299 51.77ZM60.5199 53.93C59.7399 53.93 59.0499 53.7633 58.4499 53.43C57.8499 53.0967 57.3799 52.6333 57.0399 52.04C56.6999 51.4533 56.5299 50.7733 56.5299 50C56.5299 49.22 56.6999 48.5367 57.0399 47.95C57.3866 47.3567 57.8599 46.8967 58.4599 46.57C59.0599 46.2367 59.7566 46.07 60.5499 46.07C61.2566 46.07 61.8966 46.24 62.4699 46.58C63.0366 46.92 63.4899 47.4267 63.8299 48.1C64.1633 48.7667 64.3299 49.6 64.3299 50.6H58.6899L58.9399 50.32C58.9399 50.66 59.0099 50.96 59.1499 51.22C59.2899 51.48 59.4866 51.6767 59.7399 51.81C59.9866 51.9433 60.2666 52.01 60.5799 52.01C60.9466 52.01 61.2566 51.9267 61.5099 51.76C61.7699 51.6 61.9499 51.3933 62.0499 51.14L64.1199 51.85C63.9199 52.3167 63.6366 52.7067 63.2699 53.02C62.9033 53.3267 62.4866 53.5567 62.0199 53.71C61.5466 53.8567 61.0466 53.93 60.5199 53.93ZM58.9999 49.34L58.7599 49.04H62.1199L61.9099 49.34C61.9099 48.9733 61.8366 48.68 61.6899 48.46C61.5366 48.24 61.3499 48.08 61.1299 47.98C60.9099 47.8867 60.6899 47.84 60.4699 47.84C60.2499 47.84 60.0266 47.8867 59.7999 47.98C59.5799 48.08 59.3933 48.24 59.2399 48.46C59.0799 48.68 58.9999 48.9733 58.9999 49.34ZM67.0399 49.87C67.0399 49.0567 67.2033 48.38 67.5299 47.84C67.8566 47.3 68.2666 46.8967 68.7599 46.63C69.2533 46.3567 69.7699 46.22 70.3099 46.22V48.5C69.8499 48.5 69.4199 48.55 69.0199 48.65C68.6133 48.75 68.2833 48.9033 68.0299 49.11C67.7833 49.3167 67.6599 49.58 67.6599 49.9L67.0399 49.87ZM65.3199 53.75V46.25H67.6599V53.75H65.3199Z" fill="black"/>
<path d="M71 0H92V21H71V0Z" fill="#535353"/>
<path fill-rule="evenodd" clip-rule="evenodd" d="M86.05 8.04103H84.256C84.305 7.76103 84.478 7.60303 84.831 7.42503L85.161 7.25703C85.753 6.95403 86.067 6.61303 86.067 6.05703C86.073 5.8961 86.039 5.73619 85.968 5.59166C85.8969 5.44714 85.7911 5.32253 85.66 5.22903C85.395 5.02903 85.07 4.93103 84.695 4.93103C84.397 4.93103 84.126 5.00703 83.877 5.16403C83.642 5.30291 83.4535 5.5082 83.335 5.75403L83.855 6.27303C84.055 5.86703 84.348 5.66703 84.733 5.66703C85.059 5.66703 85.259 5.83503 85.259 6.06703C85.259 6.26203 85.162 6.42403 84.787 6.61303L84.577 6.71603C84.115 6.94903 83.795 7.21403 83.611 7.51603C83.427 7.81403 83.335 8.19803 83.335 8.65803V8.78203H86.051V8.04203L86.05 8.04103ZM85.806 9.64103H82.839L81.356 12.211H84.323L85.806 14.781L87.289 12.211L85.806 9.64103Z" fill="white"/>
<path fill-rule="evenodd" clip-rule="evenodd" d="M81.608 13.9279C80.6989 13.9271 79.8272 13.5658 79.1842 12.9231C78.5411 12.2805 78.1793 11.409 78.178 10.4999C78.1795 9.59101 78.5415 8.71981 79.1845 8.07738C79.8275 7.43495 80.699 7.07374 81.608 7.07294L82.783 4.61694C81.9125 4.44281 81.0143 4.46398 80.153 4.67896C79.2917 4.89393 78.4888 5.29733 77.8023 5.86008C77.1158 6.42283 76.5627 7.13091 76.1829 7.93326C75.8031 8.73561 75.606 9.61224 75.606 10.4999C75.6062 11.2879 75.7617 12.068 76.0634 12.7959C76.3652 13.5237 76.8074 14.185 77.3647 14.742C77.9221 15.299 78.5836 15.7407 79.3117 16.042C80.0398 16.3433 80.82 16.4982 81.608 16.4979C82.8786 16.5 84.1168 16.0972 85.143 15.3479L83.843 13.0979C83.243 13.6139 82.461 13.9279 81.608 13.9279Z" fill="white"/>
<path d="M0 83.223V77.019L46 100.062L92 77.019V83.291L46 106L0 83.223Z" fill="#535353"/>
<path d="M0 77.566V71.066L46 94.108L92 71.066V77.566L46 100.046L0 77.566Z" fill="#7C7C7C"/>
<path d="M0 71.631V65.131L46 88.174L92 65.13V71.63L46 94.11L0 71.631Z" fill="white"/>
<path d="M91.53 20.533H0.625M71.262 0.909V20.533M91.5 0.5V83.022L46 105.441L0.5 83.022V0.5H91.5Z" stroke="black"/>
</g>
<defs>
<clipPath id="clip0_5702_163">
<rect width="92" height="106" fill="white"/>
</clipPath>
</defs>
</svg>
